<svg width="160" height="34" viewBox="0 0 160 34" fill="none" xmlns="http://www.w3.org/2000/svg">
<g clip-path="url(#clip0)">
<path d="M26.124 30.5656C18.685 30.5656 12.6562 24.4618 12.6562 16.9328C12.6562 9.40343 18.685 3.30549 26.124 3.30549C28.746 3.30549 31.194 4.06219 33.262 5.37382L26.124 16.9328L39.562 9.08124C38.102 6.72735 36.008 4.69908 33.476 3.15998C30.254 1.20801 25.772 0 20.816 0C13.7464 0 7.5442 2.59958 4.0854 6.49258C1.5246 9.37044 0 12.9925 0 16.9326C0 20.8756 1.5246 24.5002 4.0854 27.3801C7.5532 31.278 13.663 33.8624 20.616 33.8624C27.568 33.8624 33.676 31.2759 37.146 27.3801C37.336 27.1656 37.52 26.949 37.694 26.7244L37.17 24.737C34.732 28.2585 30.694 30.5656 26.124 30.5656Z" fill="#BF1920"/>
<path d="M70.676 33.0429L65.036 11.7524C64.13 8.31195 61.034 5.7832 57.348 5.7832C56.392 5.7832 55.476 5.95604 54.626 6.26892L42.484 10.7367H54.972L57.106 18.8012C55.036 16.9983 52.34 15.9014 49.388 15.9014C43.526 15.9014 38.78 19.8764 38.78 24.7797C38.78 29.6834 43.526 33.6642 49.388 33.6642C53.608 33.6642 57.34 31.5736 59.642 28.3618L60.88 33.0429H70.676ZM53.472 29.736C50.768 29.736 48.576 27.5199 48.576 24.7797C48.576 22.0435 50.768 19.8254 53.472 19.8254C56.176 19.8254 58.37 22.0435 58.37 24.7797C58.37 27.5199 56.176 29.736 53.472 29.736Z" fill="#BF1920"/>
<path d="M93.672 5.78662C92.932 5.78662 92.232 5.95217 91.608 6.24866L83.812 9.92511C83.426 7.57668 81.41 5.78662 78.978 5.78662C78.242 5.78662 77.54 5.95217 76.908 6.24866L67.39 10.7365H74.082V33.0429H83.878V13.2181C83.878 11.8502 84.972 10.7367 86.328 10.7367C87.676 10.7367 88.778 11.8502 88.778 13.2181V33.0429H98.57V10.7365C98.57 8.00087 96.376 5.78682 93.672 5.78682" fill="#BF1920"/>
<path d="M130.402 19.825C130.402 27.5784 124.192 33.8623 116.532 33.8623C108.866 33.8623 102.652 27.5784 102.652 19.825C102.652 12.0736 108.866 5.78662 116.532 5.78662C124.192 5.78662 130.402 12.0738 130.402 19.825ZM117.106 10.0471C116.67 8.39531 114.992 7.41478 113.36 7.8588C111.73 8.301 110.756 9.99999 111.194 11.6516L115.952 29.6022C116.392 31.2557 118.066 32.2352 119.698 31.798C121.33 31.3508 122.3 29.6528 121.862 28.0014L117.106 10.0471Z" fill="#BF1920"/>
<path d="M155.104 5.78662C154.362 5.78662 153.658 5.95217 153.024 6.24866L145.236 9.92511C144.852 7.57668 142.836 5.78662 140.404 5.78662C139.668 5.78662 138.966 5.95217 138.332 6.24866L128.818 10.7365H135.508V33.0429H145.302V13.2181C145.302 11.8502 146.398 10.7367 147.754 10.7367C149.106 10.7367 150.2 11.8502 150.2 13.2181V33.0429H160V10.7365C160 8.00087 157.804 5.78682 155.104 5.78682" fill="#BF1920"/>
</g>
<defs>
<clipPath id="clip0">
<rect width="160" height="34" fill="white"/>
</clipPath>
</defs>
</svg>
