<svg width="24" height="24" viewBox="0 0 24 24" fill="none" xmlns="http://www.w3.org/2000/svg">
<path d="M6.545 11.0912C8.051 11.0912 9.272 9.87023 9.272 8.36423C9.272 6.85823 8.052 5.63623 6.545 5.63623H2V18.3632" stroke="white" stroke-width="2" stroke-linecap="round" stroke-linejoin="round"/>
<path d="M2 18.3643H7.455C9.463 18.3643 11.091 16.7363 11.091 14.7283C11.091 12.7203 9.463 11.0923 7.455 11.0923H2" stroke="white" stroke-width="2" stroke-linecap="round" stroke-linejoin="round"/>
<path d="M15.64 7.4502H20.18" stroke="white" stroke-width="2" stroke-linecap="round" stroke-linejoin="round"/>
<path d="M20.802 17.1652C20.003 17.9642 18.956 18.3632 17.909 18.3632C15.65 18.3632 13.818 16.5312 13.818 14.2722C13.818 12.0132 15.65 10.1812 17.909 10.1812C20.168 10.1812 22 12.0132 22 14.2732H13.818" stroke="white" stroke-width="2" stroke-linecap="round" stroke-linejoin="round"/>
</svg>
