<svg width="51" height="51" viewBox="0 0 51 51" fill="none" xmlns="http://www.w3.org/2000/svg">
<circle cx="25.5" cy="25.5" r="25.5" fill="#202020"/>
<path fill-rule="evenodd" clip-rule="evenodd" d="M20.433 15.375H30.5681C33.3604 15.375 35.625 17.6385 35.625 20.433V30.5681C35.625 33.3604 33.3615 35.625 30.567 35.625H20.433C17.6396 35.625 15.375 33.3615 15.375 30.567V20.433C15.375 17.6396 17.6385 15.375 20.433 15.375V15.375Z" stroke="white" stroke-width="2" stroke-linecap="round" stroke-linejoin="round"/>
<path d="M31.0676 19.5522C30.8584 19.5534 30.6885 19.7232 30.6885 19.9325C30.6885 20.1417 30.8595 20.3116 31.0687 20.3116C31.278 20.3116 31.4479 20.1417 31.4479 19.9325C31.449 19.7221 31.278 19.5522 31.0676 19.5522Z" stroke="white" stroke-width="2" stroke-linecap="round" stroke-linejoin="round"/>
<path d="M28.3639 22.6364C29.9455 24.218 29.9455 26.7824 28.3639 28.364C26.7822 29.9456 24.2179 29.9456 22.6363 28.364C21.0547 26.7824 21.0547 24.218 22.6363 22.6364C24.2179 21.0548 26.7822 21.0548 28.3639 22.6364" stroke="white" stroke-width="2" stroke-linecap="round" stroke-linejoin="round"/>
</svg>
