<svg width="51" height="51" viewBox="0 0 51 51" fill="none" xmlns="http://www.w3.org/2000/svg">
<circle cx="25.5" cy="25.5" r="25.5" fill="#202020"/>
<path fill-rule="evenodd" clip-rule="evenodd" d="M20.433 15.375H30.5681C33.3604 15.375 35.625 17.6385 35.625 20.433V30.5681C35.625 33.3604 33.3615 35.625 30.567 35.625H20.433C17.6396 35.625 15.375 33.3615 15.375 30.567V20.433C15.375 17.6396 17.6385 15.375 20.433 15.375V15.375Z" stroke="white" stroke-width="2" stroke-linecap="round" stroke-linejoin="round"/>
<path d="M31.0676 19.5521C30.8584 19.5532 30.6885 19.7231 30.6885 19.9324C30.6885 20.1416 30.8595 20.3115 31.0687 20.3115C31.278 20.3115 31.4479 20.1416 31.4479 19.9324C31.449 19.722 31.278 19.5521 31.0676 19.5521Z" stroke="white" stroke-width="2" stroke-linecap="round" stroke-linejoin="round"/>
<path d="M28.3638 22.6362C29.9454 24.2178 29.9454 26.7821 28.3638 28.3637C26.7822 29.9454 24.2179 29.9454 22.6362 28.3637C21.0546 26.7821 21.0546 24.2178 22.6362 22.6362C24.2179 21.0545 26.7822 21.0545 28.3638 22.6362" stroke="white" stroke-width="2" stroke-linecap="round" stroke-linejoin="round"/>
</svg>
