<svg width="27" height="27" viewBox="0 0 27 27" fill="none" xmlns="http://www.w3.org/2000/svg">
<path fill-rule="evenodd" clip-rule="evenodd" d="M8.433 3.375H18.5681C21.3604 3.375 23.625 5.6385 23.625 8.433V18.5681C23.625 21.3604 21.3615 23.625 18.567 23.625H8.433C5.63962 23.625 3.375 21.3615 3.375 18.567V8.433C3.375 5.63962 5.6385 3.375 8.433 3.375V3.375Z" stroke="white" stroke-width="2" stroke-linecap="round" stroke-linejoin="round"/>
<path d="M19.0676 7.55225C18.8584 7.55337 18.6885 7.72325 18.6885 7.9325C18.6885 8.14175 18.8595 8.31162 19.0687 8.31162C19.278 8.31162 19.4479 8.14175 19.4479 7.9325C19.449 7.72212 19.278 7.55225 19.0676 7.55225Z" stroke="white" stroke-width="2" stroke-linecap="round" stroke-linejoin="round"/>
<path d="M16.3638 10.6364C17.9454 12.218 17.9454 14.7824 16.3638 16.364C14.7822 17.9456 12.2179 17.9456 10.6362 16.364C9.05461 14.7824 9.05461 12.218 10.6362 10.6364C12.2179 9.05479 14.7822 9.05479 16.3638 10.6364" stroke="white" stroke-width="2" stroke-linecap="round" stroke-linejoin="round"/>
</svg>
