<svg width="15" height="19" viewBox="0 0 15 19" fill="none" xmlns="http://www.w3.org/2000/svg">
<path d="M15 7.30233C15 9.32425 14.0956 11.2417 12.5308 12.5352L10.0728 14.5698C9.09188 15.3805 8.35974 16.4461 7.95619 17.6478L7.5 19L7.04541 17.6478C6.64186 16.4461 5.90812 15.3789 4.92875 14.5698L2.46916 12.5352C0.904402 11.2417 0 9.32425 0 7.30233V7.34033C0 2.69483 3.87601 0 7.5 0C11.124 0 15 2.69483 15 7.34033" fill="#202020"/>
<path d="M9.19232 5.81065C10.127 6.73849 10.127 8.24266 9.19232 9.16891C8.25761 10.0967 6.7423 10.0967 5.80919 9.16891C4.87448 8.24107 4.87448 6.7369 5.80919 5.81065C6.7423 4.8844 8.25761 4.8844 9.19232 5.81065Z" stroke="white" stroke-width="1.5" stroke-linecap="round" stroke-linejoin="round"/>
</svg>
