<svg width="151" height="50" viewBox="0 0 151 50" fill="none" xmlns="http://www.w3.org/2000/svg">
<g clip-path="url(#clip0)">
<path d="M34.2438 26.6496C34.7556 26.3919 35.3187 26.0826 35.8305 25.8249C36.0353 25.7218 36.7519 25.4641 36.8543 25.2579C36.9055 25.1548 36.8543 24.8455 36.8543 24.6909V23.4537V14.6393V6.03106V4.89704C36.8543 4.84549 36.9055 4.48467 36.8543 4.43312C36.8031 4.38158 36.3936 4.43312 36.3424 4.43312H35.2163C34.8068 4.43312 34.858 4.48467 34.6021 4.79395C33.6295 6.08261 32.657 7.37127 31.6844 8.71147C31.2238 9.33003 30.7631 9.89704 30.3536 10.5156C30.0465 10.928 30.0465 10.9795 29.4834 10.9795L29.637 7.57745C29.6882 6.75271 29.6882 5.92797 29.7394 5.10322C29.7394 4.79395 29.7905 4.48467 29.7905 4.17539C29.7905 4.0723 29.7394 3.76302 29.7905 3.71147C29.8929 3.55683 30.8143 3.65993 31.0702 3.65993H50.2139C50.3163 3.65993 50.777 3.60838 50.8794 3.65993C50.9817 3.71147 50.9305 4.02075 50.9305 4.17539C50.9817 4.84549 50.9817 5.56714 51.0329 6.23725C51.0841 7.73209 51.1353 9.17539 51.2377 10.6702V10.9795C50.9817 10.9795 50.777 11.0311 50.5722 10.8764C50.3675 10.7218 50.2139 10.4125 50.0604 10.2063C49.4461 9.38158 48.8319 8.50529 48.1665 7.68054L46.3238 5.20632C46.2214 5.05168 46.0678 4.69085 45.8631 4.58776C45.7095 4.48467 45.4024 4.53621 45.1977 4.53621H44.3787C44.2763 4.53621 43.8668 4.48467 43.7644 4.53621C43.7133 4.58776 43.7644 4.58776 43.7133 4.69085C43.6109 5.10323 43.7133 5.61869 43.7133 6.03106V23.9692C43.7133 24.33 43.6109 24.8455 43.7133 25.2063C43.8156 25.5671 44.6346 25.8249 44.9929 25.9795C45.3512 26.1857 45.9655 26.3403 46.2726 26.6496C46.375 26.7527 46.4773 27.2682 46.375 27.4228C46.3238 27.4744 46.0678 27.4228 46.0167 27.4228H34.7556C34.6533 27.4228 34.295 27.4744 34.2438 27.4228C34.1926 27.2166 34.2438 26.8043 34.2438 26.6496ZM53.2339 25.7218V18.196V5.87642V3.86611C53.2339 3.55683 53.3363 3.09292 53.2339 2.78364C53.1316 2.42281 52.5173 2.37127 52.159 2.21663C51.9543 2.16508 51.2889 2.01044 51.1865 1.80426V1.39188H51.34C51.5448 1.28879 51.9543 1.28879 52.2102 1.23725C52.6709 1.13415 53.1316 1.08261 53.5411 0.979513C54.5648 0.773328 55.6397 0.567142 56.6634 0.412503C57.2777 0.30941 57.8919 0.154771 58.5061 0.0516784C58.6597 0.0516784 59.2739 -0.0514144 59.3251 0.0516784C59.3763 0.103225 59.3251 0.30941 59.3251 0.360957V11.0311C61.2702 9.0723 64.6485 7.98982 67.3614 8.65993C69.716 9.22694 70.4838 11.4434 70.4838 13.7115C70.535 16.5981 70.4838 19.4331 70.4838 22.3197V24.6393C70.4838 24.897 70.3814 25.5156 70.4838 25.7733C70.535 25.8764 70.7397 25.928 70.8421 26.0311C71.2004 26.2372 71.6099 26.4434 71.9682 26.6496C72.0194 26.7012 72.1729 26.7527 72.1729 26.8043C72.2241 26.8558 72.2241 27.3197 72.1729 27.3713C72.1217 27.4744 72.1217 27.4228 71.9682 27.4228C71.4051 27.5259 70.7909 27.4228 70.279 27.4228H62.9082C62.857 27.4228 62.6011 27.4744 62.5499 27.4228C62.4987 27.3713 62.4987 26.8043 62.5499 26.7527C62.7034 26.5465 63.3177 26.3403 63.5224 26.1857C63.676 26.0826 64.1367 25.928 64.239 25.7733C64.3414 25.6187 64.239 25.0517 64.239 24.897V22.7836C64.239 19.7939 64.2902 16.7527 64.239 13.763C64.239 12.8867 64.0855 11.8558 63.2153 11.3919C62.7546 11.1342 62.1404 11.0826 61.6285 11.0826C61.219 11.0826 60.8095 11.1857 60.4512 11.2888C60.1441 11.3919 59.5811 11.5981 59.3763 11.8558C59.2228 12.062 59.3251 12.3713 59.3251 12.629V24.7939C59.3251 25.0517 59.2228 25.5671 59.3251 25.7733C59.3763 25.8764 59.5811 25.9795 59.7346 26.0311C60.0929 26.2372 60.5536 26.4434 60.9119 26.6496C60.9631 26.7012 61.0655 26.7012 61.0655 26.7527C61.1167 26.8043 61.1167 27.2682 61.0655 27.3197C61.0143 27.3713 60.9631 27.3713 60.8607 27.3713C60.2977 27.4228 59.6834 27.3713 59.1204 27.3713H51.7495C51.6983 27.3713 51.4424 27.4228 51.3912 27.3713C51.34 27.3197 51.3912 26.8043 51.4424 26.7012C51.596 26.495 52.159 26.2888 52.3638 26.1857C52.7221 26.0311 52.978 25.8764 53.2339 25.7218ZM77.5475 18.6084C77.6499 20.8764 78.3665 23.4022 80.4139 24.6393C81.4889 25.2579 82.8197 25.4641 84.0482 25.361C85.5326 25.2063 86.7611 24.4847 88.0407 23.8146C88.0407 24.0208 88.0919 24.3816 88.0407 24.5878C87.9383 24.7939 87.6824 25.0517 87.5289 25.2063C87.3241 25.4125 87.0682 25.6702 86.8122 25.8764C85.9421 26.5981 84.9695 27.1135 83.9458 27.4744C82.0007 28.1445 79.7485 28.0929 77.7522 27.5775C76.1655 27.1651 74.7322 26.3919 73.6573 25.1548C72.5824 23.9177 71.9682 22.3197 71.7122 20.6702C71.1492 17.1135 71.8146 13.0414 74.7322 10.6702C77.2916 8.60838 81.3865 8.19601 84.4065 9.43312C88.0919 10.928 88.7061 15.1548 88.7061 18.6599H78.9295C78.4689 18.6084 78.0082 18.6084 77.5475 18.6084ZM77.4451 17.7321C78.4689 17.6805 79.4926 17.629 80.5675 17.5259C81.1817 17.4744 81.8472 17.4744 82.4614 17.4228C82.5638 17.4228 82.8197 17.4228 82.9221 17.3713C83.0756 17.2682 82.9733 16.2372 82.9733 16.0311C82.9221 14.1754 82.8709 11.9073 81.796 10.3094C81.0282 9.17539 79.8509 9.38158 79.1343 10.4125C77.6499 12.4228 77.4451 15.4125 77.4451 17.7321ZM-0.0511475 36.5465C-0.0511475 33.6599 0.511903 30.6702 2.09868 28.2476C3.63428 25.8764 6.09123 24.33 8.75292 23.5568C11.9777 22.629 15.5607 22.7321 18.8878 23.3506C19.6044 23.5053 20.3211 23.6599 20.9865 23.8661C21.0889 23.9177 21.5495 24.0208 21.6007 24.1238V24.2785C21.7543 24.897 21.6519 25.6702 21.6519 26.2888C21.7031 27.8867 21.7031 29.5362 21.7543 31.1342C21.5495 31.1342 21.1912 31.1857 21.0377 31.1342C20.9353 31.0826 20.8329 30.8249 20.7817 30.7218C20.3722 30.1032 19.9627 29.4847 19.6044 28.8146C18.7343 27.4228 17.8129 26.0311 16.9427 24.6393C16.4821 23.8661 15.2024 23.8661 14.3834 23.8661C13.4621 23.8661 12.5407 24.0208 11.7729 24.4847C10.0326 25.5671 9.2136 27.6805 8.75292 29.5878C8.03631 32.629 8.0875 35.8249 8.24106 38.9177C8.39462 41.2888 8.59936 43.8146 9.52072 45.9795C10.0838 47.3197 11.0563 48.5053 12.5407 48.8146C13.0014 48.9177 13.4621 48.9177 13.9739 48.8661C14.2811 48.8146 15.356 48.763 15.5095 48.4537C15.5607 48.3507 15.5095 48.0929 15.5095 47.9898V47.1135V41.6496V39.5362C15.5095 39.1754 15.6119 39.0208 15.3048 38.8146C14.9465 38.6084 14.537 38.4022 14.1787 38.1445C13.9228 37.9898 13.4109 37.8352 13.2573 37.629C13.155 37.5259 13.1038 36.9589 13.2061 36.8558C13.2573 36.7527 13.2573 36.8043 13.4109 36.8043C13.8716 36.7012 14.4858 36.8043 14.9465 36.8043H22.8804C23.3922 36.8043 23.9553 36.7527 24.4672 36.8043H24.6719C24.7231 36.8558 24.7231 37.5775 24.6719 37.6805C24.5695 37.8352 24.0577 38.0414 23.8529 38.1445C23.4946 38.3507 23.0851 38.5568 22.7268 38.8146C22.3173 39.0208 22.3685 39.0208 22.3685 39.4847V47.8867C22.3685 47.9898 22.4197 48.2476 22.3685 48.3507C22.2661 48.6084 21.1912 48.763 20.8841 48.8661C20.0139 49.1238 19.0926 49.33 18.1712 49.4847C16.3797 49.7939 14.5882 49.897 12.7966 49.8455C9.93021 49.7424 6.91021 49.1238 4.55563 47.3713C2.50817 45.8764 1.17733 43.6084 0.56309 41.1342C0.102412 39.6909 -0.0511475 38.0929 -0.0511475 36.5465ZM23.5458 31.8558C23.5458 31.7527 23.4946 31.3403 23.5458 31.2888C23.597 31.2372 23.6482 31.2888 23.6994 31.2372C24.0065 31.0826 24.416 31.0826 24.7743 31.0311C25.9516 30.8249 27.1289 30.6187 28.3573 30.4125C29.2787 30.2579 30.2 30.0517 31.0702 29.9486C31.3261 29.897 31.6333 29.897 31.8892 30.0001C32.1451 30.0517 32.0428 30.0001 32.0939 30.2063C32.1963 30.8249 32.0939 31.5465 32.0939 32.1651V42.9383C32.0939 44.2269 31.7356 46.5981 32.9641 47.3713C33.5783 47.7836 34.4485 47.7836 35.1651 47.629C35.7282 47.5259 36.8031 47.1135 37.0078 46.495C37.059 46.3403 37.0078 46.1342 37.0078 45.9795V44.897V37.7321V34.4331V33.3507C37.0078 33.2476 37.059 32.9383 37.0078 32.8352C36.8543 32.6805 36.3424 32.5259 36.1889 32.4744C35.8817 32.3713 35.6258 32.2166 35.3187 32.1135C35.2163 32.062 34.858 32.0104 34.8068 31.9074C34.7556 31.8558 34.7556 31.3919 34.8068 31.3403C34.858 31.2888 34.858 31.3403 34.9092 31.2888C35.1651 31.1342 35.6258 31.1857 35.8817 31.1342C37.9804 30.7733 40.1302 30.3094 42.28 30.0001C42.536 29.9486 42.7919 29.9486 43.0478 30.0001C43.3038 30.0517 43.2014 29.9486 43.2526 30.2063C43.355 30.7218 43.2526 31.4434 43.2526 32.0104V46.8558C43.2526 47.0104 43.2014 47.2682 43.2526 47.4744C43.3038 47.629 43.2526 47.5775 43.5085 47.6805C44.0204 47.8867 44.5834 48.1445 45.0953 48.3507C45.2489 48.4022 45.3 48.4022 45.3512 48.5053C45.4024 48.6084 45.4024 48.9692 45.3512 48.9692C45.2489 49.0723 44.737 49.0208 44.6346 49.0723C43.5085 49.2269 42.3824 49.33 41.2051 49.4847C40.1814 49.5878 39.1577 49.7424 38.1851 49.8455C37.9804 49.897 37.7756 49.897 37.5709 49.8455C37.4685 49.8455 37.1614 49.8455 37.1102 49.7939C37.059 49.6909 37.1102 49.2785 37.1102 49.1754V48.2991C37.1102 48.1445 37.2126 47.7321 37.1102 47.5775C37.0078 47.4228 36.8031 47.629 36.6495 47.7321C36.24 48.0929 35.7794 48.4537 35.3187 48.7115C33.6295 49.7424 31.5309 50.2063 29.5858 49.7939C28.1526 49.4847 26.9241 48.6599 26.3099 47.2682C25.8492 46.2888 25.7468 45.2063 25.7468 44.1754V38.0414V34.5362V33.3507C25.7468 33.2476 25.798 32.9383 25.7468 32.8352C25.6444 32.6805 25.0302 32.5259 24.8766 32.4228C24.3648 32.2166 23.9553 32.062 23.5458 31.8558ZM71.8146 29.897C71.917 29.897 72.3777 29.897 72.4289 30.0001C72.48 30.0517 72.4289 30.4125 72.4289 30.4641V35.0001C72.4289 35.1548 72.3777 35.4125 72.4289 35.5671V35.6702C72.6336 35.8764 72.6848 35.2063 72.736 35.1548C73.1967 33.2476 74.0668 31.0311 76.0119 30.2579C76.3702 30.1032 76.7285 30.0517 77.0868 30.0001C77.3939 30.0001 78.2641 29.897 78.4177 30.1548C78.4689 30.2579 78.4177 30.5156 78.4177 30.6187V35.8764C77.1892 35.6187 75.8072 35.6702 74.6299 35.928C74.0668 36.0311 73.555 36.1857 73.0431 36.4434C72.7872 36.5465 72.736 36.495 72.6848 36.7012C72.6336 36.9073 72.6848 37.2682 72.6848 37.4744V47.4228C72.6848 47.5259 72.6336 47.6805 72.6848 47.7836C72.7872 47.9383 73.1455 48.0414 73.299 48.0929C73.555 48.2476 73.8621 48.4022 74.118 48.5568C74.2204 48.6084 74.3739 48.6599 74.4251 48.763C74.4763 48.8146 74.4763 49.4331 74.4251 49.4847C74.3739 49.5362 74.0668 49.4847 73.9645 49.4847H65.4675C65.2116 49.4847 64.7509 49.5878 64.5461 49.4847H64.3926C64.3414 49.4331 64.3926 48.8661 64.3926 48.8146C64.495 48.5053 65.1604 48.2991 65.4675 48.1445C65.6722 48.0414 66.0817 47.8867 66.1841 47.6805C66.2353 47.5775 66.1841 47.2682 66.1841 47.1651V46.0826V32.8352C66.1841 32.7836 66.2353 32.5259 66.1841 32.4744C66.1329 32.4228 65.877 32.3713 65.7746 32.3713C65.4675 32.2682 65.1604 32.1651 64.8533 32.1135C64.5461 32.0104 63.7783 31.9589 64.0343 31.4434C64.0855 31.2888 64.2902 31.3403 64.495 31.2888C66.7472 30.8764 68.9482 30.4641 71.2004 30.0517C71.4051 29.9486 71.6099 29.9486 71.8146 29.897ZM91.1119 30.361V26.2372V25.0517C91.1119 24.897 91.1631 24.5878 91.1119 24.4331C91.0607 24.33 90.856 24.2785 90.7024 24.2269C90.2929 24.0723 89.8834 23.9177 89.4228 23.763C89.1156 23.6599 88.9621 23.7115 88.9621 23.3506C88.9621 23.0414 88.9109 23.1445 89.1668 23.0929C89.7299 22.8867 90.3953 22.8867 90.9584 22.7836C92.6475 22.4744 94.2855 22.1651 95.9746 21.8558C96.3329 21.8043 96.6912 21.7012 97.0495 21.7527C97.459 21.8043 97.5102 21.7012 97.5102 22.062C97.5614 22.8867 97.5102 23.763 97.5102 24.5878V47.1651C97.5102 47.3713 97.459 47.3713 97.6126 47.4744C97.9197 47.6805 98.4316 47.7836 98.7387 47.8867C98.9434 47.9383 99.5065 48.0414 99.6089 48.196C99.66 48.2476 99.66 48.8146 99.6089 48.8661C99.5577 48.9177 99.2506 48.9177 99.1994 48.9177C98.4828 49.0208 97.8173 49.1238 97.1007 49.1754C95.5139 49.3816 93.9272 49.5878 92.2892 49.7939C92.0333 49.8455 91.419 49.9486 91.3167 49.7424C91.2143 49.5362 91.3167 48.8661 91.3167 48.6599C91.3167 48.5053 91.419 47.8352 91.3167 47.7321C91.2143 47.629 90.0882 48.6599 89.9346 48.763C89.3204 49.1754 88.655 49.4847 87.9384 49.6909C86.8122 50.0001 85.5326 50.0001 84.4065 49.7424C79.4926 48.6084 78.4689 42.7321 78.8783 38.4537C79.0831 36.1857 79.7997 33.9177 81.3353 32.2682C82.7685 30.7733 84.7136 30.0001 86.7099 29.8455C88.2455 29.6909 89.7299 29.7939 91.1119 30.361ZM91.1119 46.8043V34.1238V31.7527C91.1119 31.4434 91.0607 31.3919 90.7024 31.1857C89.9858 30.7733 89.0645 30.6187 88.2967 30.928C87.1194 31.3919 86.5563 32.7836 86.2492 33.9177C85.635 35.9795 85.5838 38.196 85.635 40.361C85.6861 42.2166 85.7373 44.4847 86.7611 46.1342C87.6824 47.5775 89.7811 47.9383 91.1119 46.8043ZM108.055 29.897C108.311 29.9486 108.618 29.8455 108.72 30.1032C108.771 30.2579 108.72 30.6187 108.72 30.7733V46.9074C108.72 47.1135 108.669 47.4228 108.72 47.629C108.771 47.8352 108.976 47.8867 109.181 47.9898C109.488 48.1445 109.744 48.2991 110.051 48.4537C110.153 48.5053 110.46 48.6084 110.512 48.763C110.512 48.8146 110.563 49.4331 110.512 49.4847H110.358C110.051 49.5362 109.641 49.4847 109.283 49.4847H101.503C101.298 49.4847 100.735 49.5878 100.581 49.4847C100.479 49.4331 100.428 48.8146 100.53 48.7115C100.633 48.5568 100.991 48.4537 101.144 48.4022C101.452 48.2476 101.759 48.0414 102.066 47.8867C102.322 47.7321 102.271 47.7836 102.271 47.5775C102.373 46.8043 102.271 45.928 102.271 45.1548V41.0826V33.6599C102.271 33.4537 102.322 33.0929 102.271 32.8867C102.219 32.6805 101.963 32.6805 101.759 32.5775C101.4 32.4228 101.093 32.3197 100.735 32.1651C100.633 32.1135 100.223 32.062 100.121 31.9074C100.07 31.8558 100.07 31.3403 100.121 31.2888C100.172 31.2372 100.274 31.2888 100.325 31.2372C100.735 31.0826 101.196 31.0826 101.656 30.9795C102.322 30.8764 102.936 30.7218 103.601 30.6187C104.881 30.4125 106.11 30.1548 107.389 29.9486C107.645 30.0001 107.85 29.9486 108.055 29.897ZM108.771 25.1032C108.669 28.196 104.523 29.5362 102.629 27.1135C101.759 25.9795 101.708 24.4331 102.475 23.2476C103.243 22.062 104.728 21.5465 106.11 21.8558C107.645 22.1651 108.771 23.5053 108.771 25.1032ZM131.191 47.7321V35.3094V32.9383C131.191 32.8867 131.242 32.629 131.191 32.5775C131.14 32.4744 130.833 32.4228 130.73 32.4228L129.809 32.1135C129.655 32.062 129.246 32.0104 129.143 31.8558C129.041 31.7527 129.092 31.495 129.092 31.3403C129.092 31.0311 129.195 31.0826 129.502 31.0311L132.88 30.4125L136.258 29.7939C136.463 29.7424 136.617 29.6909 136.821 29.6909C136.924 29.6909 137.436 29.6909 137.538 29.7424C137.589 29.7939 137.538 30.1032 137.538 30.2063V31.1857C137.538 31.3403 137.436 31.8043 137.538 31.9589C137.64 32.1651 137.845 31.9589 137.999 31.8043C138.459 31.4434 138.92 31.1342 139.432 30.8764C141.275 29.8455 143.476 29.3816 145.574 29.6909C147.008 29.897 148.185 30.6702 148.697 32.062C149.055 33.0414 149.106 34.0723 149.106 35.1032V46.8558C149.106 47.062 149.055 47.4228 149.106 47.629C149.157 47.8352 149.311 47.8867 149.567 47.9898C149.823 48.1445 150.13 48.2991 150.386 48.4537C150.488 48.5053 150.846 48.6084 150.898 48.763C150.949 48.8661 150.949 49.3816 150.898 49.4331C150.846 49.5362 150.949 49.4331 150.795 49.4847C150.591 49.5878 150.13 49.4847 149.874 49.4847H142.554C142.247 49.4847 141.07 49.6393 140.916 49.4331C140.865 49.3816 140.865 48.8146 140.916 48.7115C140.967 48.6084 141.275 48.5053 141.377 48.4537C141.684 48.2991 141.94 48.1445 142.247 47.9898C142.35 47.9383 142.657 47.8352 142.708 47.7321C142.759 47.629 142.708 47.4228 142.708 47.3197V46.1857V42.5775V35.6187C142.708 34.7939 142.759 33.8661 142.247 33.1445C141.838 32.5259 141.121 32.3713 140.404 32.3197C139.841 32.3197 139.33 32.3713 138.818 32.5259C138.562 32.629 137.794 32.8352 137.64 33.1445C137.589 33.2476 137.64 33.4537 137.64 33.5568V46.9074C137.64 47.062 137.589 47.4228 137.64 47.5775C137.692 47.7836 137.999 47.8352 138.152 47.9383C138.408 48.0929 138.715 48.2476 138.971 48.4022C139.074 48.4537 139.278 48.5568 139.33 48.6084C139.381 48.6599 139.381 49.2785 139.33 49.33C139.33 49.3816 139.278 49.33 139.227 49.33C139.022 49.4331 138.511 49.33 138.306 49.33H129.706C129.451 49.33 129.399 49.3816 129.348 49.2269C129.297 49.1238 129.297 48.6599 129.348 48.5568C129.399 48.4537 129.706 48.3507 129.809 48.2991C130.321 48.2476 130.73 47.9898 131.191 47.7321ZM120.339 38.2476C120.339 36.9074 120.391 35.5156 120.288 34.1238C120.135 32.629 119.725 30.9795 118.036 30.6702C117.524 30.5671 116.603 30.4125 116.244 30.8249C115.886 31.1857 115.63 31.7012 115.323 32.1135L112.713 35.6702C112.559 35.8764 112.405 36.2888 112.201 36.3919C112.15 36.4434 111.638 36.4434 111.638 36.3919C111.586 36.3403 111.638 35.9795 111.638 35.8764V31.7012C111.638 31.5465 111.586 31.2888 111.638 31.1342C111.74 30.8764 112.866 30.7218 113.122 30.6187C114.555 30.2579 116.04 30.0001 117.524 29.897C119.623 29.7424 121.977 29.7939 123.922 30.7218C125.458 31.4434 126.431 32.7321 126.686 34.3816C126.84 35.2063 126.789 36.1342 126.789 36.9589V47.2682C126.789 47.4228 126.686 47.8352 126.789 47.9383C126.84 47.9898 127.096 48.0414 127.147 48.0414C127.557 48.1445 127.915 48.2476 128.324 48.3507C128.58 48.4022 128.632 48.4022 128.632 48.6599C128.632 48.9177 128.683 48.9177 128.376 49.0208C128.017 49.1754 127.659 49.33 127.301 49.4331C125.407 50.0001 122.438 50.1548 121.056 48.4022C120.954 48.2476 120.646 47.5775 120.493 47.5259C120.288 47.4744 119.674 48.2991 119.469 48.4537C118.65 49.1754 117.575 49.5878 116.5 49.7424C114.504 50.0001 112.354 49.5878 111.126 47.8352C110.102 46.3403 109.897 44.0208 110.665 42.3713C112.047 39.2269 116.142 38.9177 119.111 38.4022C119.469 38.4022 119.879 38.2991 120.339 38.2476ZM120.339 46.8043V39.1754C118.804 39.2785 117.217 39.3816 116.654 41.0826C116.244 42.2166 116.244 43.5568 116.398 44.7424C116.5 45.5671 116.705 46.5981 117.473 47.1135C118.292 47.6805 119.674 47.5775 120.339 46.8043ZM55.5373 38.2476C55.5373 36.9074 55.5885 35.5156 55.4861 34.1238C55.3326 32.629 54.9231 30.9795 53.2339 30.6702C52.7221 30.5671 51.8007 30.4125 51.4424 30.8249C51.0841 31.1857 50.8282 31.7012 50.5211 32.1135L47.9105 35.6702C47.757 35.8764 47.6034 36.2888 47.3987 36.3919C47.3475 36.4434 46.8356 36.4434 46.8356 36.3919C46.7844 36.3403 46.8356 35.9795 46.8356 35.8764V31.7527C46.8356 31.5981 46.7844 31.3403 46.8356 31.1857C46.938 30.928 48.0129 30.7733 48.32 30.6702C49.7533 30.3094 51.2377 30.0517 52.6709 29.9486C54.7695 29.7939 57.1241 29.8455 59.0692 30.7733C60.6048 31.495 61.5773 32.7836 61.8333 34.4331C61.9868 35.2579 61.9356 36.1857 61.9356 37.0104V47.3197C61.9356 47.4744 61.8333 47.8867 61.9356 47.9898C61.9868 48.0414 62.2428 48.0929 62.2939 48.0929C62.7034 48.196 63.0617 48.2991 63.4712 48.4022C63.7272 48.4537 63.7783 48.4537 63.7783 48.7115C63.7783 48.9692 63.8295 48.9692 63.5224 49.0723C63.1641 49.2269 62.8058 49.3816 62.4475 49.4847C60.5536 50.0517 57.5848 50.2063 56.2028 48.4537C56.1004 48.2991 55.7933 47.629 55.6397 47.5775C55.435 47.5259 54.8207 48.3507 54.6672 48.5053C53.8482 49.2269 52.7733 49.6393 51.6983 49.7939C49.7021 50.0517 47.5522 49.6393 46.3238 47.8867C45.3 46.3919 45.0953 44.0723 45.8631 42.4228C47.2451 39.2785 51.34 38.9692 54.2577 38.4537C54.6672 38.4022 55.0766 38.2991 55.5373 38.2476ZM55.5373 46.8043V39.1754C54.0017 39.2785 52.415 39.3816 51.8519 41.0826C51.4424 42.2166 51.4424 43.5568 51.596 44.7424C51.6983 45.5671 51.9031 46.5981 52.6709 47.1135C53.4899 47.6805 54.8719 47.5775 55.5373 46.8043Z" fill="#777777"/>
</g>
<defs>
<clipPath id="clip0">
<rect width="151" height="50" fill="white"/>
</clipPath>
</defs>
</svg>
