<svg width="51" height="51" viewBox="0 0 51 51" fill="none" xmlns="http://www.w3.org/2000/svg">
<circle cx="25.5" cy="25.5" r="25.5" fill="#202020"/>
<path d="M20.545 24.0912C22.051 24.0912 23.272 22.8702 23.272 21.3642C23.272 19.8582 22.052 18.6362 20.545 18.6362H16V31.3632" stroke="white" stroke-width="2" stroke-linecap="round" stroke-linejoin="round"/>
<path d="M16 31.3643H21.455C23.463 31.3643 25.091 29.7363 25.091 27.7283C25.091 25.7203 23.463 24.0923 21.455 24.0923H16" stroke="white" stroke-width="2" stroke-linecap="round" stroke-linejoin="round"/>
<path d="M29.64 20.4502H34.18" stroke="white" stroke-width="2" stroke-linecap="round" stroke-linejoin="round"/>
<path d="M34.802 30.1652C34.003 30.9642 32.956 31.3632 31.909 31.3632C29.65 31.3632 27.818 29.5312 27.818 27.2722C27.818 25.0132 29.65 23.1812 31.909 23.1812C34.168 23.1812 36 25.0132 36 27.2732H27.818" stroke="white" stroke-width="2" stroke-linecap="round" stroke-linejoin="round"/>
</svg>
