<svg width="128" height="34" viewBox="0 0 128 34" fill="none" xmlns="http://www.w3.org/2000/svg">
<path d="M37.6777 0.969986C30.314 1.02267 24.2908 9.21259 24.2908 16.3561C24.2908 23.8734 28.7061 33.0434 37.6777 33.0136C46.6494 32.9839 51.3059 23.1116 51.3059 16.3561C51.3059 8.89407 45.0414 0.917303 37.6777 0.969986ZM37.6777 1.25018C43.8408 1.25018 45.5035 8.06165 45.5035 16.3561C45.5035 27.3004 43.4979 32.6998 37.6777 32.6895C31.8576 32.6793 29.9642 28.2601 29.9642 16.3561C29.9642 8.89918 31.5146 1.25018 37.6777 1.25018Z" fill="#202020"/>
<path d="M53.7374 16.5583C53.7044 8.43007 60.2052 1.23006 65.7083 0.872832C67.696 0.731908 70.2512 1.64282 71.7429 2.29171C72.826 2.76291 75.0372 2.08087 75.4299 0.82959H75.644V11.9017H75.4299C75.4299 11.4297 73.3808 1.1512 65.7083 1.1512C60.0411 1.1512 59.4936 11.1232 59.4936 16.5583C59.4936 21.9933 59.6587 32.7527 66.2721 32.7527C69.4758 32.7527 71.8472 31.3501 72.4619 28.5125V19.8845H69.7728V19.5169H80.1963V19.8845H77.6253V32.4986H77.416C77.416 32.4986 76.9981 30.6786 74.8772 30.6846C72.1665 30.6924 69.6101 33.0491 66.4939 33.0204C58.2526 32.9445 53.7704 24.6864 53.7374 16.5583Z" fill="#202020"/>
<path d="M4.07458 2.06039H0.829041V1.69531H12.1983V2.06039H9.34606L17.4697 24.1372C20.01 16.3109 21.9779 10.5257 24.6262 2.06039H21.805V1.69531H27.808V2.06039H25.0743L15.2008 32.8618L4.07458 2.06039Z" fill="#202020"/>
<path d="M81.788 25.3211L81.7366 2.02523H78.6473V1.67627H90.0288V2.02523H86.9414L87.0099 27.5679C87.6934 30.4928 88.9086 32.7121 93.0602 32.7451C97.2119 32.7781 100.034 30.2874 101.083 26.8836V2.02523H97.5492L97.5491 1.68655H126.474L126.534 12.8695H126.256C125.72 5.64909 122.936 2.92029 118.067 2.1242C116.391 1.85027 114.634 2.05334 112.412 2.03605V16.3085C114.347 16.458 116.408 16.3357 117.797 15.1418C119.06 14.0562 119.417 11.548 119.51 10.529H119.754V22.9559H119.49C119.413 22.9559 119.311 19.8374 117.797 18.3579C116.272 16.8687 114.33 16.5026 112.412 16.8574V32.1034C115.122 32.1034 117.282 32.3331 119.158 31.8184C124.862 30.2538 126.869 25.439 126.854 20.6099H127.171V32.4643H104.483V32.1034H107.048V2.02523H101.506V26.8836C100.877 29.2621 98.5813 33.1969 92.6971 33.1701C87.226 33.1451 81.7998 30.6769 81.788 25.3211Z" fill="#202020"/>
</svg>
