<svg width="150" height="37" viewBox="0 0 150 37" fill="none" xmlns="http://www.w3.org/2000/svg">
<path d="M59.0903 13.3365H63.8282V28.3574H59.0903V13.3365Z" fill="#C8232C"/>
<path d="M64.8174 13.337H69.3807V15.3906H69.4678C70.5724 13.777 71.9966 12.897 74.0603 12.897C77.3156 12.897 79.234 15.2439 79.234 18.5884V28.3579H74.4963V19.5567C74.4963 17.9723 73.7115 16.8867 72.1711 16.8867C70.6015 16.8867 69.5551 18.207 69.5551 20.0553V28.3579H64.8174V13.337Z" fill="#C8232C"/>
<path d="M64.301 9.31765C64.301 7.7333 63.0286 6.44911 61.4591 6.44911C59.8896 6.44911 58.6172 7.7333 58.6172 9.31765C58.6172 10.9018 59.8896 12.186 61.4591 12.186C63.0286 12.186 64.301 10.9018 64.301 9.31765Z" fill="#C8232C"/>
<path d="M112.555 13.1196C112.42 13.1074 112.265 13.1019 112.084 13.1019C110.282 13.1019 109.061 13.894 108.014 15.6836H107.927V13.3366H103.393V28.3574H108.131V21.6098C108.131 18.4833 109.846 17.0345 112.555 17.2873V13.1196Z" fill="#C8232C"/>
<path d="M135.805 18.8811C133.916 18.5291 132.23 18.3825 132.23 17.3263C132.23 16.3874 133.131 15.9474 134.293 15.9474C135.601 15.9474 136.503 16.3581 136.677 17.7077H141.037C140.804 14.7446 138.537 12.8962 134.323 12.8962C130.806 12.8962 127.899 14.5392 127.899 17.7077C127.899 21.228 130.66 21.9322 133.247 22.3724C135.224 22.7245 137.026 22.8711 137.026 24.2206C137.026 25.1888 136.125 25.7169 134.7 25.7169C133.272 25.7169 132.327 25.1067 132.037 23.8687H127.522C127.855 26.9565 130.54 28.8267 134.729 28.8267C138.624 28.8267 141.502 27.1251 141.502 23.8394C141.502 19.9959 138.421 19.3212 135.805 18.8811Z" fill="#C8232C"/>
<path d="M119.905 16.2993C121.445 16.2993 122.549 17.4435 122.724 19.2333H116.853C117.172 17.4435 118.103 16.2993 119.905 16.2993ZM120.166 25.3646C118.219 25.3646 117.114 24.1032 116.824 22.0789H127.52C127.549 19.0279 126.677 16.4167 124.904 14.7739C123.625 13.6004 121.939 12.8962 119.817 12.8962C115.283 12.8962 112.173 16.3287 112.173 20.8175C112.173 25.3646 115.196 28.7974 120.108 28.7974C121.997 28.7974 123.509 28.2986 124.758 27.4184C126.066 26.509 126.938 25.2181 127.258 23.8687H122.637C122.23 24.8074 121.416 25.3646 120.166 25.3646Z" fill="#C8232C"/>
<path d="M149.846 24.8156C149.626 24.8244 149.332 24.8372 149.061 24.8372C148.043 24.8372 147.404 24.5438 147.404 23.3703V16.3292H149.846V13.3368H147.404V8.58403H142.783V13.3368H141.328V16.3292H142.783V24.3971C142.783 27.6244 144.759 28.5337 147.52 28.5337C148.574 28.5337 149.37 28.4541 149.846 28.3604V24.8156Z" fill="#C8232C"/>
<path d="M87.6947 24.8224C87.5057 24.8298 87.2876 24.8372 87.0837 24.8372C86.0666 24.8372 85.427 24.5438 85.427 23.3703V16.3292H87.6947V13.3368H85.427V8.58403H80.8056V13.3368H79.2645V16.3292H80.8056V24.3971C80.8056 27.6244 82.782 28.5337 85.5433 28.5337C86.4776 28.5337 87.2091 28.4709 87.6947 28.3915V24.8224Z" fill="#C8232C"/>
<path d="M98.0144 19.2333C97.84 17.4437 96.7353 16.2994 95.1949 16.2994C93.3928 16.2994 92.4628 17.4437 92.143 19.2333H98.0144ZM87.4635 20.8175C87.4635 16.3288 90.5735 12.8964 95.1078 12.8964C97.2295 12.8964 98.9154 13.6004 100.194 14.7739C101.967 16.4169 102.839 19.0279 102.81 22.0791H92.1141C92.4046 24.1033 93.5091 25.3648 95.4566 25.3648C96.7063 25.3648 97.5202 24.8074 97.927 23.8687H102.549C102.229 25.2181 101.357 26.509 100.049 27.4186C98.7991 28.2986 97.2877 28.7974 95.3984 28.7974C90.4862 28.7974 87.4635 25.3648 87.4635 20.8175Z" fill="#C8232C"/>
<path d="M50.8625 17.2385C52.7228 17.2385 53.7691 16.1236 53.7691 14.4512C53.7691 12.7791 52.6936 11.7523 50.8625 11.7523H47.2291V17.2385H50.8625ZM42.4326 7.38095H50.6599C53.1885 7.38095 55.0487 8.08499 56.3276 9.31723C57.6647 10.5786 58.4204 12.3684 58.4204 14.4807C58.4204 18.4999 55.6591 21.3458 51.3864 21.3458H47.2291V28.3574H42.4326V7.38095Z" fill="#C8232C"/>
<path d="M35.929 18.4999C35.929 28.4712 27.9205 36.5547 18.0416 36.5547C8.16274 36.5547 0.154236 28.4712 0.154236 18.4999C0.154236 8.52837 8.16274 0.445057 18.0416 0.445057C27.9205 0.445057 35.929 8.52837 35.929 18.4999Z" fill="white"/>
<path d="M18.0414 0.445057C8.16249 0.445057 0.153992 8.52852 0.153992 18.4999C0.153992 26.1488 4.8688 32.6876 11.5228 35.3183C11.3664 33.8898 11.2251 31.6929 11.5848 30.1334C11.9099 28.7243 13.6823 21.159 13.6823 21.159C13.6823 21.159 13.1472 20.0774 13.1472 18.4784C13.1472 15.9679 14.5889 14.0936 16.3839 14.0936C17.91 14.0936 18.6471 15.2501 18.6471 16.6368C18.6471 18.186 17.67 20.502 17.1657 22.6483C16.7443 24.4453 18.0585 25.9108 19.8145 25.9108C22.9937 25.9108 25.4376 22.5272 25.4376 17.6431C25.4376 13.3202 22.3601 10.2977 17.9659 10.2977C12.8763 10.2977 9.88888 14.1509 9.88888 18.133C9.88888 19.6848 10.4811 21.3487 11.2201 22.2533C11.3663 22.4321 11.3877 22.5887 11.3442 22.7712C11.2084 23.3414 10.9066 24.5677 10.8474 24.8187C10.7694 25.1492 10.5882 25.2194 10.2491 25.0601C8.01513 24.0105 6.61836 20.7137 6.61836 18.0656C6.61836 12.3703 10.7181 7.13984 18.4373 7.13984C24.6424 7.13984 29.4645 11.6029 29.4645 17.5675C29.4645 23.7898 25.5776 28.7976 20.1826 28.7976C18.37 28.7976 16.666 27.8471 16.0827 26.7244C16.0827 26.7244 15.1858 30.1716 14.9684 31.0164C14.5645 32.5846 13.4744 34.5503 12.7452 35.7496C14.4188 36.2726 16.1974 36.5547 18.0414 36.5547C27.9204 36.5547 35.9289 28.4712 35.9289 18.4999C35.9289 8.52852 27.9204 0.445057 18.0414 0.445057Z" fill="#C8232C"/>
</svg>
