<svg width="51" height="51" viewBox="0 0 51 51" fill="none" xmlns="http://www.w3.org/2000/svg">
<circle cx="25.5" cy="25.5" r="25.5" fill="#202020"/>
<path d="M20.545 24.091C22.051 24.091 23.272 22.87 23.272 21.364C23.272 19.858 22.052 18.636 20.545 18.636H16V31.363" stroke="white" stroke-width="2" stroke-linecap="round" stroke-linejoin="round"/>
<path d="M16 31.364H21.455C23.463 31.364 25.091 29.736 25.091 27.728C25.091 25.72 23.463 24.092 21.455 24.092H16" stroke="white" stroke-width="2" stroke-linecap="round" stroke-linejoin="round"/>
<path d="M29.64 20.45H34.18" stroke="white" stroke-width="2" stroke-linecap="round" stroke-linejoin="round"/>
<path d="M34.802 30.165C34.003 30.964 32.956 31.363 31.909 31.363C29.65 31.363 27.818 29.531 27.818 27.272C27.818 25.013 29.65 23.181 31.909 23.181C34.168 23.181 36 25.013 36 27.273H27.818" stroke="white" stroke-width="2" stroke-linecap="round" stroke-linejoin="round"/>
</svg>
