<svg fill="none" height="51" viewBox="0 0 51 51" width="51" xmlns="http://www.w3.org/2000/svg"><circle cx="25.5" cy="25.5" fill="#202020" r="25.5"/><g stroke="#fff" stroke-linecap="round" stroke-linejoin="round" stroke-width="2"><path clip-rule="evenodd" d="m20.433 15.375h10.1351c2.7923 0 5.0569 2.2635 5.0569 5.058v10.1351c0 2.7923-2.2635 5.0569-5.058 5.0569h-10.134c-2.7934 0-5.058-2.2635-5.058-5.058v-10.134c0-2.7934 2.2635-5.058 5.058-5.058z" fill-rule="evenodd"/><path d="m31.0676 19.5521c-.2092.0011-.3791.171-.3791.3803 0 .2092.171.3791.3802.3791.2093 0 .3792-.1699.3792-.3791.0011-.2104-.1699-.3803-.3803-.3803z"/><path d="m28.3638 22.6362c1.5816 1.5816 1.5816 4.1459 0 5.7275-1.5816 1.5817-4.1459 1.5817-5.7276 0-1.5816-1.5816-1.5816-4.1459 0-5.7275 1.5817-1.5817 4.146-1.5817 5.7276 0"/></g></svg>